<?xml version="1.0" encoding="UTF-8"?>
<svg width="160px" height="160px" viewBox="0 0 160 160" xmlns="http://www.w3.org/2000/svg">
  <g>
    <!-- Grape stem -->
    <path d="M80,30 C80,30 70,40 75,50 C80,40 90,40 95,50 C100,40 90,30 80,30" fill="#5e3b28"/>
    <!-- Grape cluster -->
    <g fill="#6a1b9a">
      <circle cx="60" cy="70" r="20"/>
      <circle cx="90" cy="60" r="20"/>
      <circle cx="120" cy="80" r="20"/>
      <circle cx="100" cy="110" r="20"/>
      <circle cx="70" cy="100" r="20"/>
      <circle cx="50" cy="120" r="20"/>
      <circle cx="80" cy="130" r="20"/>
      <circle cx="110" cy="130" r="20"/>
    </g>
    <!-- Grape highlights -->
    <g fill="#9c4dcc" opacity="0.5">
      <circle cx="55" cy="65" r="8"/>
      <circle cx="85" cy="55" r="8"/>
      <circle cx="115" cy="75" r="8"/>
      <circle cx="95" cy="105" r="8"/>
      <circle cx="65" cy="95" r="8"/>
      <circle cx="45" cy="115" r="8"/>
      <circle cx="75" cy="125" r="8"/>
      <circle cx="105" cy="125" r="8"/>
    </g>
  </g>
</svg>
