<?xml version="1.0" encoding="UTF-8"?>
<svg width="160px" height="160px" viewBox="0 0 160 160" xmlns="http://www.w3.org/2000/svg">
  <g>
    <!-- Strawberry body -->
    <path d="M80,40 C50,40 40,70 40,100 C40,130 60,140 80,140 C100,140 120,130 120,100 C120,70 110,40 80,40" fill="#e41e25"/>
    <!-- Strawberry top -->
    <path d="M80,40 C65,40 60,30 60,20 C70,25 90,25 100,20 C100,30 95,40 80,40" fill="#3a9d23"/>
    <!-- Strawberry seeds -->
    <g fill="#ffeb3b">
      <circle cx="60" cy="60" r="2"/>
      <circle cx="70" cy="55" r="2"/>
      <circle cx="90" cy="55" r="2"/>
      <circle cx="100" cy="60" r="2"/>
      <circle cx="55" cy="75" r="2"/>
      <circle cx="65" cy="70" r="2"/>
      <circle cx="75" cy="75" r="2"/>
      <circle cx="85" cy="70" r="2"/>
      <circle cx="95" cy="75" r="2"/>
      <circle cx="105" cy="75" r="2"/>
      <circle cx="50" cy="90" r="2"/>
      <circle cx="60" cy="95" r="2"/>
      <circle cx="70" cy="90" r="2"/>
      <circle cx="80" cy="95" r="2"/>
      <circle cx="90" cy="90" r="2"/>
      <circle cx="100" cy="95" r="2"/>
      <circle cx="110" cy="90" r="2"/>
      <circle cx="55" cy="110" r="2"/>
      <circle cx="65" cy="115" r="2"/>
      <circle cx="75" cy="110" r="2"/>
      <circle cx="85" cy="115" r="2"/>
      <circle cx="95" cy="110" r="2"/>
      <circle cx="105" cy="115" r="2"/>
      <circle cx="65" cy="130" r="2"/>
      <circle cx="75" cy="125" r="2"/>
      <circle cx="85" cy="130" r="2"/>
      <circle cx="95" cy="125" r="2"/>
    </g>
    <!-- Strawberry highlight -->
    <ellipse cx="65" cy="80" rx="15" ry="25" fill="#f4777c" opacity="0.5"/>
  </g>
</svg>
